<svg width="49" height="46" viewBox="0 0 49 46" fill="none" xmlns="http://www.w3.org/2000/svg">
<path fill-rule="evenodd" clip-rule="evenodd" d="M23.904 26.1356C24.464 25.5758 25.3719 25.5758 25.9319 26.1356L34.9392 35.1393C35.4992 35.6991 35.4992 36.6066 34.9392 37.1664L34.4784 37.627C34.463 37.6424 34.4473 37.6575 34.4312 37.6721C29.0046 42.6236 20.6411 42.5995 15.2307 37.6049C15.2167 37.592 15.203 37.5788 15.1896 37.5654L14.8436 37.2195C14.2836 36.6598 14.2836 35.7522 14.8436 35.1925L23.904 26.1356ZM24.918 29.1762L17.944 36.1473C22.0317 39.3016 27.7881 39.2856 31.8486 36.1041L24.918 29.1762Z" fill="url(#paint0_linear_260_277)"/>
<path fill-rule="evenodd" clip-rule="evenodd" d="M34.5913 7.64859C34.6052 7.66147 34.6189 7.67463 34.6324 7.68805L34.9666 8.02215C35.5266 8.58191 35.5266 9.48945 34.9666 10.0492L20.9283 24.0818C20.9129 24.0972 20.8972 24.1123 20.8811 24.1269C15.4545 29.0784 7.09094 29.0543 1.68058 24.0597C1.66662 24.0468 1.65293 24.0336 1.6395 24.0202L1.29347 23.6743C0.733488 23.1146 0.733488 22.207 1.29347 21.6473L15.3486 7.59775C15.364 7.58236 15.3797 7.56733 15.3958 7.55265C20.8268 2.59714 29.1853 2.65807 34.5913 7.64859ZM31.8648 9.09565C27.5597 5.78006 21.4212 5.95711 17.3527 9.64859L4.39395 22.6022C8.69644 25.9222 14.8477 25.7299 18.9243 22.031L31.8648 9.09565Z" fill="url(#paint1_linear_260_277)"/>
<path fill-rule="evenodd" clip-rule="evenodd" d="M15.272 7.62173C15.2581 7.63461 15.2444 7.64777 15.2309 7.6612L14.8967 7.99529C14.3367 8.55505 14.3367 9.4626 14.8967 10.0224L28.9349 24.055C28.9503 24.0704 28.9661 24.0854 28.9821 24.1001C34.4087 29.0515 42.7723 29.0274 48.1827 24.0328C48.1966 24.0199 48.2103 24.0068 48.2238 23.9934L48.5698 23.6475C49.1298 23.0877 49.1298 22.1802 48.5698 21.6204L34.5147 7.57089C34.4993 7.5555 34.4835 7.54047 34.4674 7.52579C29.0364 2.57028 20.6779 2.63122 15.272 7.62173ZM17.9985 9.06879C22.3035 5.7532 28.4421 5.93025 32.5106 9.62173L45.4693 22.5753C41.1668 25.8953 35.0156 25.7031 30.939 22.0041L17.9985 9.06879Z" fill="url(#paint2_linear_260_277)"/>
<defs>
<linearGradient id="paint0_linear_260_277" x1="38.7869" y1="-0.739836" x2="20.3735" y2="40.7133" gradientUnits="userSpaceOnUse">
<stop stop-color="#0CF1D7"/>
<stop offset="0.562428" stop-color="#114EF7"/>
<stop offset="0.888011" stop-color="#A91BFF"/>
<stop offset="1" stop-color="#FC7541"/>
</linearGradient>
<linearGradient id="paint1_linear_260_277" x1="36.6194" y1="0.031945" x2="21.5445" y2="41.2542" gradientUnits="userSpaceOnUse">
<stop stop-color="#0CF1D7"/>
<stop offset="0.550694" stop-color="#114EF7"/>
<stop offset="0.860978" stop-color="#A91BFF"/>
<stop offset="1" stop-color="#FC7541"/>
</linearGradient>
<linearGradient id="paint2_linear_260_277" x1="37.3414" y1="0.00508829" x2="22.7974" y2="41.2537" gradientUnits="userSpaceOnUse">
<stop stop-color="#0CF1D7"/>
<stop offset="0.539597" stop-color="#114EF7"/>
<stop offset="0.855601" stop-color="#A91BFF"/>
<stop offset="1" stop-color="#FC7541"/>
</linearGradient>
</defs>
</svg>
