<svg width="36" height="22" viewBox="0 0 36 22" fill="none" xmlns="http://www.w3.org/2000/svg">
<path d="M30.5615 5.69155C30.2175 5.63422 29.8162 5.60555 29.3575 5.60555C27.6375 5.60555 26.3475 5.92088 25.4875 6.55155C24.6275 7.12489 24.1975 8.15688 24.1975 9.64755L24.2835 9.73355C25.2582 9.16022 26.6629 8.87355 28.4975 8.87355C32.9695 8.87355 35.2055 10.9949 35.2055 15.2376C35.2055 17.3589 34.6322 18.9929 33.4855 20.1396C32.3389 21.2862 30.3035 21.8596 27.3795 21.8596C24.3982 21.8596 22.2482 20.9996 20.9295 19.2796C19.6109 17.5596 18.9515 15.0942 18.9515 11.8836C18.9515 7.64089 19.8115 4.74555 21.5315 3.19755C23.2515 1.59222 25.6882 0.789551 28.8415 0.789551C29.1282 0.789551 29.4149 0.818217 29.7015 0.875549C29.9882 0.875549 30.3035 0.904218 30.6475 0.961554V5.60555L30.5615 5.69155ZM12.5875 5.69155C12.3582 5.63422 12.1575 5.60555 11.9855 5.60555C11.8135 5.60555 11.6415 5.60555 11.4695 5.60555C9.69221 5.60555 8.37354 5.92088 7.51354 6.55155C6.65354 7.12489 6.22354 8.15688 6.22354 9.64755L6.30954 9.73355C6.76821 9.44689 7.34154 9.24622 8.02954 9.13155C8.77487 8.95955 9.60621 8.87355 10.5235 8.87355C14.9955 8.87355 17.2315 10.9949 17.2315 15.2376C17.2315 17.3589 16.6582 18.9929 15.5115 20.1396C14.4222 21.2862 12.3869 21.8596 9.40554 21.8596C6.42421 21.8596 4.27421 20.9996 2.95554 19.2796C1.63687 17.5596 0.977539 15.0942 0.977539 11.8836C0.977539 7.64089 1.83754 4.74555 3.55754 3.19755C5.27754 1.59222 7.71421 0.789551 10.8675 0.789551C11.2115 0.789551 11.4982 0.818217 11.7275 0.875549C12.0142 0.875549 12.3295 0.904218 12.6735 0.961554V5.60555L12.5875 5.69155Z" fill="#594ECA"/>
</svg>
