<svg width="36" height="22" viewBox="0 0 36 22" fill="none" xmlns="http://www.w3.org/2000/svg"><path d="M30.561 5.692a7.409 7.409 0 00-1.203-.086c-1.72 0-3.01.315-3.87.946-.86.573-1.29 1.605-1.29 3.096l.085.086c.975-.574 2.38-.86 4.214-.86 4.472 0 6.709 2.12 6.709 6.364 0 2.12-.574 3.755-1.72 4.902-1.147 1.146-3.182 1.72-6.106 1.72-2.982 0-5.132-.86-6.45-2.58-1.32-1.72-1.979-4.186-1.979-7.396 0-4.243.86-7.138 2.58-8.686C23.252 1.592 25.689.79 28.841.79c.287 0 .574.028.86.086.287 0 .602.028.947.086v4.644l-.087.086zm-17.973 0a2.527 2.527 0 00-.602-.086h-.517c-1.777 0-3.095.315-3.955.946-.86.573-1.29 1.605-1.29 3.096l.086.086c.458-.287 1.032-.488 1.72-.602.745-.172 1.576-.258 2.494-.258 4.472 0 6.708 2.12 6.708 6.364 0 2.12-.574 3.755-1.72 4.902-1.09 1.146-3.125 1.72-6.106 1.72-2.982 0-5.132-.86-6.45-2.58-1.32-1.72-1.978-4.186-1.978-7.396 0-4.243.86-7.138 2.58-8.686C5.278 1.592 7.714.79 10.868.79c.343 0 .63.028.86.086.286 0 .601.028.946.086v4.644l-.086.086z" fill="#594ECA"/></svg>