<svg width="33" height="33" viewBox="0 0 33 33" fill="none" xmlns="http://www.w3.org/2000/svg">
<path d="M6.91211 23.5949H5.57878C4.87153 23.5949 4.19325 23.3139 3.69316 22.8138C3.19306 22.3137 2.91211 21.6355 2.91211 20.9282V7.59489C2.91211 6.88765 3.19306 6.20937 3.69316 5.70927C4.19325 5.20917 4.87153 4.92822 5.57878 4.92822H26.9121C27.6194 4.92822 28.2976 5.20917 28.7977 5.70927C29.2978 6.20937 29.5788 6.88765 29.5788 7.59489V20.9282C29.5788 21.6355 29.2978 22.3137 28.7977 22.8138C28.2976 23.3139 27.6194 23.5949 26.9121 23.5949H25.5788" stroke="white" stroke-width="2" stroke-linecap="round" stroke-linejoin="round"/>
<path d="M16.2467 20.9282L22.9134 28.9282H9.58008L16.2467 20.9282Z" stroke="white" stroke-width="2" stroke-linecap="round" stroke-linejoin="round"/>
</svg>
