<svg width="33" height="33" viewBox="0 0 33 33" fill="none" xmlns="http://www.w3.org/2000/svg">
<path d="M16.2454 29.5944C23.6092 29.5944 29.5788 23.6249 29.5788 16.2611C29.5788 8.89727 23.6092 2.92773 16.2454 2.92773C8.88165 2.92773 2.91211 8.89727 2.91211 16.2611C2.91211 23.6249 8.88165 29.5944 16.2454 29.5944Z" stroke="white" stroke-width="2" stroke-linecap="round" stroke-linejoin="round"/>
<path d="M16.2454 21.5944C19.191 21.5944 21.5788 19.2066 21.5788 16.2611C21.5788 13.3155 19.191 10.9277 16.2454 10.9277C13.2999 10.9277 10.9121 13.3155 10.9121 16.2611C10.9121 19.2066 13.2999 21.5944 16.2454 21.5944Z" stroke="white" stroke-width="2" stroke-linecap="round" stroke-linejoin="round"/>
<path d="M28.4728 10.9277H16.2461" stroke="white" stroke-width="2" stroke-linecap="round" stroke-linejoin="round"/>
<path d="M5.5127 8.34131L11.6327 18.928" stroke="white" stroke-width="2" stroke-linecap="round" stroke-linejoin="round"/>
<path d="M14.7529 29.5144L20.8596 18.9277" stroke="white" stroke-width="2" stroke-linecap="round" stroke-linejoin="round"/>
</svg>
