<svg width="33" height="33" viewBox="0 0 33 33" fill="none" xmlns="http://www.w3.org/2000/svg">
<path d="M28.2461 22.2616V11.5949C28.2456 11.1273 28.1222 10.668 27.8881 10.2631C27.6541 9.85827 27.3177 9.52207 26.9128 9.28825L17.5794 3.95492C17.174 3.72087 16.7142 3.59766 16.2461 3.59766C15.778 3.59766 15.3181 3.72087 14.9128 3.95492L5.57943 9.28825C5.17444 9.52207 4.83807 9.85827 4.60404 10.2631C4.37002 10.668 4.24657 11.1273 4.24609 11.5949V22.2616C4.24657 22.7292 4.37002 23.1885 4.60404 23.5934C4.83807 23.9982 5.17444 24.3344 5.57943 24.5683L14.9128 29.9016C15.3181 30.1356 15.778 30.2589 16.2461 30.2589C16.7142 30.2589 17.174 30.1356 17.5794 29.9016L26.9128 24.5683C27.3177 24.3344 27.6541 23.9982 27.8881 23.5934C28.1222 23.1885 28.2456 22.7292 28.2461 22.2616Z" stroke="white" stroke-width="2" stroke-linecap="round" stroke-linejoin="round"/>
<path d="M10.2461 6.5415L16.2461 10.0082L22.2461 6.5415" stroke="white" stroke-width="2" stroke-linecap="round" stroke-linejoin="round"/>
<path d="M10.2461 27.3149V20.3949L4.24609 16.9282" stroke="white" stroke-width="2" stroke-linecap="round" stroke-linejoin="round"/>
<path d="M28.2461 16.9282L22.2461 20.3949V27.3149" stroke="white" stroke-width="2" stroke-linecap="round" stroke-linejoin="round"/>
<path d="M4.60547 10.208L16.2455 16.9413L27.8855 10.208" stroke="white" stroke-width="2" stroke-linecap="round" stroke-linejoin="round"/>
<path d="M16.2461 30.3682V16.9282" stroke="white" stroke-width="2" stroke-linecap="round" stroke-linejoin="round"/>
</svg>
