<svg width="33" height="33" viewBox="0 0 33 33" fill="none" xmlns="http://www.w3.org/2000/svg">
<path d="M25.5794 4.92822H6.91276C5.44 4.92822 4.24609 6.12213 4.24609 7.59489V26.2616C4.24609 27.7343 5.44 28.9282 6.91276 28.9282H25.5794C27.0522 28.9282 28.2461 27.7343 28.2461 26.2616V7.59489C28.2461 6.12213 27.0522 4.92822 25.5794 4.92822Z" stroke="white" stroke-width="2" stroke-linecap="round" stroke-linejoin="round"/>
<path d="M11.5801 14.2617C12.6846 14.2617 13.5801 13.3663 13.5801 12.2617C13.5801 11.1571 12.6846 10.2617 11.5801 10.2617C10.4755 10.2617 9.58008 11.1571 9.58008 12.2617C9.58008 13.3663 10.4755 14.2617 11.5801 14.2617Z" stroke="white" stroke-width="2" stroke-linecap="round" stroke-linejoin="round"/>
<path d="M28.2454 20.9284L21.5788 14.2617L6.91211 28.9284" stroke="white" stroke-width="2" stroke-linecap="round" stroke-linejoin="round"/>
</svg>
