<svg width="33" height="33" viewBox="0 0 33 33" fill="none" xmlns="http://www.w3.org/2000/svg">
<path d="M8.24609 12.9281V3.59473H24.2461V12.9281" stroke="white" stroke-width="2" stroke-linecap="round" stroke-linejoin="round"/>
<path d="M8.24544 24.9282H5.57878C4.87153 24.9282 4.19325 24.6473 3.69316 24.1472C3.19306 23.6471 2.91211 22.9688 2.91211 22.2616V15.5949C2.91211 14.8876 3.19306 14.2094 3.69316 13.7093C4.19325 13.2092 4.87153 12.9282 5.57878 12.9282H26.9121C27.6194 12.9282 28.2976 13.2092 28.7977 13.7093C29.2978 14.2094 29.5788 14.8876 29.5788 15.5949V22.2616C29.5788 22.9688 29.2978 23.6471 28.7977 24.1472C28.2976 24.6473 27.6194 24.9282 26.9121 24.9282H24.2454" stroke="white" stroke-width="2" stroke-linecap="round" stroke-linejoin="round"/>
<path d="M24.2461 19.5947H8.24609V30.2614H24.2461V19.5947Z" stroke="white" stroke-width="2" stroke-linecap="round" stroke-linejoin="round"/>
</svg>
