<svg width="33" height="33" viewBox="0 0 33 33" fill="none" xmlns="http://www.w3.org/2000/svg"><path d="M28.246 22.262V11.595a2.666 2.666 0 00-1.333-2.307l-9.334-5.333a2.667 2.667 0 00-2.666 0L5.579 9.288a2.667 2.667 0 00-1.333 2.307v10.667a2.667 2.667 0 001.333 2.306l9.334 5.334a2.667 2.667 0 002.666 0l9.334-5.334a2.668 2.668 0 001.333-2.306z" stroke="#fff" stroke-width="2" stroke-linecap="round" stroke-linejoin="round"/><path d="M10.246 6.542l6 3.466 6-3.466m-12 20.773v-6.92l-6-3.467m24 0l-6 3.467v6.92M4.605 10.208l11.64 6.733 11.64-6.733m-11.639 20.16v-13.44" stroke="#fff" stroke-width="2" stroke-linecap="round" stroke-linejoin="round"/></svg>